<mxfile host="app.diagrams.net" agent="Mozilla/5.0 (Windows NT 10.0; Win64; x64) AppleWebKit/537.36 (KHTML, like Gecko) Chrome/140.0.0.0 Safari/537.36" version="28.2.3">
  <diagram name="Page-1" id="sqAQPlWcpq5T3Crrjcin">
    <mxGraphModel dx="2078" dy="673" grid="1" gridSize="10" guides="1" tooltips="1" connect="1" arrows="1" fold="1" page="1" pageScale="1" pageWidth="827" pageHeight="1169" math="0" shadow="0">
      <root>
        <mxCell id="0" />
        <mxCell id="1" parent="0" />
        <mxCell id="3F5eK62oKUuV28n4bGqt-1" value="Interop" style="rounded=1;whiteSpace=wrap;html=1;verticalAlign=top;fontStyle=1" vertex="1" parent="1">
          <mxGeometry x="-180" y="80" width="230" height="300" as="geometry" />
        </mxCell>
        <mxCell id="3F5eK62oKUuV28n4bGqt-2" value="BankAgent" style="rounded=1;whiteSpace=wrap;html=1;" vertex="1" parent="1">
          <mxGeometry x="-137.5" y="120" width="145" height="60" as="geometry" />
        </mxCell>
        <mxCell id="3F5eK62oKUuV28n4bGqt-3" value="Ecollect" style="rounded=1;whiteSpace=wrap;html=1;verticalAlign=top;fontStyle=1" vertex="1" parent="1">
          <mxGeometry x="200" y="80" width="430" height="300" as="geometry" />
        </mxCell>
        <mxCell id="3F5eK62oKUuV28n4bGqt-8" style="edgeStyle=orthogonalEdgeStyle;rounded=0;orthogonalLoop=1;jettySize=auto;html=1;entryX=1;entryY=0.5;entryDx=0;entryDy=0;" edge="1" parent="1" source="3F5eK62oKUuV28n4bGqt-4" target="3F5eK62oKUuV28n4bGqt-6">
          <mxGeometry relative="1" as="geometry">
            <Array as="points">
              <mxPoint x="320" y="290" />
            </Array>
          </mxGeometry>
        </mxCell>
        <mxCell id="3F5eK62oKUuV28n4bGqt-10" style="edgeStyle=orthogonalEdgeStyle;rounded=0;orthogonalLoop=1;jettySize=auto;html=1;" edge="1" parent="1" source="3F5eK62oKUuV28n4bGqt-4" target="3F5eK62oKUuV28n4bGqt-9">
          <mxGeometry relative="1" as="geometry" />
        </mxCell>
        <mxCell id="3F5eK62oKUuV28n4bGqt-4" value="BankAgent" style="rounded=1;whiteSpace=wrap;html=1;" vertex="1" parent="1">
          <mxGeometry x="260" y="120" width="120" height="60" as="geometry" />
        </mxCell>
        <mxCell id="3F5eK62oKUuV28n4bGqt-6" value="getRecordsForPayment" style="rounded=1;whiteSpace=wrap;html=1;" vertex="1" parent="1">
          <mxGeometry x="-135" y="260" width="140" height="60" as="geometry" />
        </mxCell>
        <mxCell id="3F5eK62oKUuV28n4bGqt-7" style="edgeStyle=orthogonalEdgeStyle;rounded=0;orthogonalLoop=1;jettySize=auto;html=1;" edge="1" parent="1" source="3F5eK62oKUuV28n4bGqt-2" target="3F5eK62oKUuV28n4bGqt-4">
          <mxGeometry relative="1" as="geometry" />
        </mxCell>
        <mxCell id="3F5eK62oKUuV28n4bGqt-9" value="" style="shape=cylinder3;whiteSpace=wrap;html=1;boundedLbl=1;backgroundOutline=1;size=15;" vertex="1" parent="1">
          <mxGeometry x="490" y="120" width="50" height="60" as="geometry" />
        </mxCell>
        <mxCell id="3F5eK62oKUuV28n4bGqt-11" value="Sistema Origen" style="rounded=1;whiteSpace=wrap;html=1;verticalAlign=top;fontStyle=1" vertex="1" parent="1">
          <mxGeometry x="-528" y="80" width="230" height="300" as="geometry" />
        </mxCell>
        <mxCell id="3F5eK62oKUuV28n4bGqt-13" style="edgeStyle=orthogonalEdgeStyle;rounded=0;orthogonalLoop=1;jettySize=auto;html=1;entryX=0;entryY=0.5;entryDx=0;entryDy=0;" edge="1" parent="1" source="3F5eK62oKUuV28n4bGqt-12" target="3F5eK62oKUuV28n4bGqt-2">
          <mxGeometry relative="1" as="geometry" />
        </mxCell>
        <mxCell id="3F5eK62oKUuV28n4bGqt-12" value="Portal" style="rounded=1;whiteSpace=wrap;html=1;" vertex="1" parent="1">
          <mxGeometry x="-473" y="120" width="120" height="60" as="geometry" />
        </mxCell>
        <mxCell id="3F5eK62oKUuV28n4bGqt-15" style="edgeStyle=orthogonalEdgeStyle;rounded=0;orthogonalLoop=1;jettySize=auto;html=1;" edge="1" parent="1" source="3F5eK62oKUuV28n4bGqt-14" target="3F5eK62oKUuV28n4bGqt-12">
          <mxGeometry relative="1" as="geometry" />
        </mxCell>
        <mxCell id="3F5eK62oKUuV28n4bGqt-14" value="Actor" style="shape=umlActor;verticalLabelPosition=bottom;verticalAlign=top;html=1;outlineConnect=0;" vertex="1" parent="1">
          <mxGeometry x="-660" y="130" width="20" height="40" as="geometry" />
        </mxCell>
      </root>
    </mxGraphModel>
  </diagram>
</mxfile>
